<?xml version="1.0" encoding="UTF-8" standalone="no"?>
<svg
   xmlns:dc="http://purl.org/dc/elements/1.1/"
   xmlns:cc="http://creativecommons.org/ns#"
   xmlns:rdf="http://www.w3.org/1999/02/22-rdf-syntax-ns#"
   xmlns:svg="http://www.w3.org/2000/svg"
   xmlns="http://www.w3.org/2000/svg"
   viewBox="0 0 28 28"
   version="1.1"
   id="svg60"
   width="28"
   height="28">
  <metadata
     id="metadata66">
    <rdf:RDF>
      <cc:Work
         rdf:about="">
        <dc:format>image/svg+xml</dc:format>
        <dc:type
           rdf:resource="http://purl.org/dc/dcmitype/StillImage" />
        <dc:title></dc:title>
      </cc:Work>
    </rdf:RDF>
  </metadata>
  <defs
     id="defs64" />
  <path
     d="m 14.821197,1.2245912 c -7.1360032,0 -12.9208988,5.7848954 -12.9208988,12.9208988 0,7.136005 5.7848956,12.9209 12.9208988,12.9209 0.873271,0 1.726253,-0.08688 2.550936,-0.252024 -0.332411,-0.158986 -0.368683,-1.351782 -0.03997,-2.031845 0.365924,-0.757085 1.514168,-2.675032 0.378542,-3.318552 -1.135627,-0.643521 -0.820175,-0.933739 -1.514168,-1.678203 -0.693995,-0.744467 -0.410171,-0.85638 -0.454251,-1.0473 -0.151416,-0.656139 0.668757,-1.640348 0.706612,-1.741292 0.03786,-0.100946 0.03786,-0.479487 0.02524,-0.59305 -0.01261,-0.113563 -0.517305,-0.416396 -0.643486,-0.429014 -0.126181,-0.01261 -0.189272,0.201887 -0.365924,0.214507 -0.176653,0.01262 -0.946355,-0.466869 -1.110391,-0.59305 -0.164033,-0.126179 -0.239743,-0.429014 -0.466867,-0.656138 -0.227126,-0.227127 -0.252363,-0.05047 -0.605667,-0.189272 -0.353306,-0.138798 -1.488933,-0.555194 -2.359579,-0.9085 C 10.051568,13.48935 9.9758599,12.994084 9.963242,12.64394 9.9506316,12.293798 9.4332831,11.785912 9.1906466,11.419988 8.9480764,11.054064 8.9033239,10.549342 8.814998,10.662905 8.7266722,10.776466 9.2692477,12.101363 9.1809221,12.139218 9.0925962,12.177073 8.9033239,11.773294 8.6509627,11.445223 8.3986017,11.117154 8.9159432,11.293807 8.108386,9.7039314 7.3008303,8.1140555 8.3607486,7.3033361 8.4112194,6.4737056 8.4616921,5.6440766 9.0925962,6.7765391 8.7645257,6.2465816 8.4364566,5.7166224 8.7897625,4.6062331 8.5374001,4.2024544 8.2850391,3.7986759 6.8465806,4.6567057 6.8465806,4.6567057 6.8844339,4.2655446 8.108386,3.5967873 8.9916511,2.9785025 9.8749148,2.3602175 10.41433,2.8397043 11.124104,3.0668281 c 0.709775,0.2271256 0.757085,0.1514177 0.517341,-0.075708 -0.239743,-0.2271255 0.100944,-0.3406885 0.656138,-0.252361 0.555197,0.088326 0.706613,0.7570831 1.552023,0.6939929 0.845411,-0.06309 0.08833,0.1640352 0.201889,0.3785431 0.113563,0.2145061 -0.126181,0.1892708 -0.681375,0.5678125 -0.555195,0.3785412 0.01261,0.3785412 0.996828,1.0977714 0.984208,0.7192299 0.681375,-0.4794869 0.58043,-1.0094458 -0.100945,-0.5299576 0.71923,-0.1135612 0.71923,-0.1135612 0.605667,0.4037768 0.493753,0.022208 0.935385,0.1610061 0.441632,0.1387983 1.638699,1.1512716 1.638699,1.1512716 -1.501548,0.8201749 -0.555194,0.9085007 -0.302833,1.0977716 0.252361,0.1892708 -0.51734,0.5551946 -0.51734,0.5551946 -0.315451,-0.3154512 -0.365924,0.012611 -0.567814,0.1261821 -0.201888,0.1135612 -0.01261,0.4037771 -0.01261,0.4037771 -1.044137,0.1640354 -0.807556,1.261807 -0.794938,1.5267857 0.01261,0.2649803 -0.668758,0.6687572 -0.845411,1.0473002 -0.176653,0.378542 0.454251,1.198715 0.126181,1.249188 -0.328069,0.05047 -0.656138,-1.23657 -2.422669,-0.757083 -0.532582,0.144586 -1.716057,0.757083 -1.085152,2.006272 0.630902,1.249188 1.678202,-0.353306 2.031508,-0.176653 0.353306,0.176653 -0.100946,0.971591 -0.02524,0.984209 0.07571,0.01261 0.996826,0.03469 1.047299,1.110389 0.05047,1.0757 1.400605,0.984211 1.690821,1.009446 0.290214,0.02524 1.261805,-0.794939 1.400605,-0.832792 0.138799,-0.03785 0.693993,-0.504723 1.905328,0.189269 1.211334,0.693996 1.829619,0.59305 2.246015,0.883266 0.416397,0.290217 0.126181,0.870647 0.517342,1.059916 0.39116,0.189274 1.955799,-0.06309 2.346959,0.580433 0.391161,0.643523 -1.615113,3.873746 -2.246015,4.227052 -0.630903,0.353307 -0.921119,1.160863 -1.552022,1.678201 -0.630904,0.517343 -1.514168,1.1577 -2.346961,1.652971 -0.737164,0.438333 -0.869805,1.223613 -1.198177,1.471502 C 23.418174,25.474158 27.7421,20.314881 27.7421,14.14549 27.7421,7.0094865 21.957205,1.2245911 14.8212,1.2245911 Z m 3.028336,12.1259608 c -0.176653,0.05047 -0.542577,0.378542 -1.43846,-0.151417 -0.895883,-0.529958 -1.514168,-0.429015 -1.589876,-0.51734 0,0 -0.07571,-0.214508 0.315452,-0.252361 0.803216,-0.07776 1.817001,0.744465 2.044127,0.757083 0.227125,0.01261 0.340686,-0.227126 0.744465,-0.09701 0.403779,0.129982 0.100945,0.21057 -0.07571,0.261042 z M 13.622481,2.5116335 c -0.08799,-0.063999 0.07288,-0.1376885 0.16878,-0.2649786 0.05535,-0.073555 0.01429,-0.1956649 0.08358,-0.2649806 0.189272,-0.1892709 1.123008,-0.4542498 0.940433,0.06309 C 14.632766,2.5621058 13.76128,2.6125782 13.62248,2.5116332 Z M 15.881114,4.151982 C 15.565663,4.1393715 14.823115,4.0608976 14.959996,3.9248564 15.493118,3.3948989 14.758107,3.2434814 14.303856,3.2056279 13.849606,3.1677732 13.660335,2.9154122 13.887461,2.890175 c 0.227124,-0.025235 1.135625,0.012627 1.287042,0.1387998 0.151416,0.1261807 0.971591,0.4542499 1.022064,0.6939932 0.05047,0.2397431 0,0.4416317 -0.315453,0.429014 z M 18.619236,4.063656 C 18.366873,4.2655446 17.096992,3.3392441 16.852705,3.1299183 15.792788,2.2214177 15.224976,2.5242514 15.002393,2.3728352 c -0.22265,-0.1514175 -0.143341,-0.353306 0.197346,-0.6561397 0.340688,-0.3028336 1.299661,0.1009451 1.854856,0.1640354 0.555195,0.06309 1.198717,0.4921043 1.211335,1.0020765 0.01261,0.5099369 0.605667,0.9789587 0.353306,1.1808486 z"
     id="path2"
     style="stroke-width:0.03364818" />
</svg>
